<?xml version="1.0" encoding="UTF-8" standalone="no"?>
<!-- Created with Inkscape (http://www.inkscape.org/) -->

<svg
   width="16.988976"
   height="16.989746"
   viewBox="0 0 4.4949998 4.4952036"
   version="1.1"
   id="svg1"
   xml:space="preserve"
   xmlns="http://www.w3.org/2000/svg"
   xmlns:svg="http://www.w3.org/2000/svg"
   xmlns:rdf="http://www.w3.org/1999/02/22-rdf-syntax-ns#"
   xmlns:cc="http://creativecommons.org/ns#"
   xmlns:dc="http://purl.org/dc/elements/1.1/"><title
     id="title4">github [#142]</title><defs
     id="defs1" /><g
     id="layer1"
     transform="translate(-20.08069,-248.72417)"><g
       id="g2"
       transform="matrix(0.20432747,0,0,0.20432747,19.130269,247.70254)"><path
         d="m 20.096463,5 h -8.891 a 6.559,6.559 0 0 0 -6.5540002,6.554 v 8.891 A 6.559,6.559 0 0 0 11.205463,27 h 8.891 a 6.56,6.56 0 0 0 6.554,-6.555 V 11.554 A 6.557,6.557 0 0 0 20.096463,5 Z m 4.342,15.445 a 4.343,4.343 0 0 1 -4.342,4.342 h -8.891 A 4.341,4.341 0 0 1 6.8644628,20.445 V 11.554 A 4.34,4.34 0 0 1 11.205463,7.213 h 8.891 a 4.342,4.342 0 0 1 4.341,4.341 z"
         id="path1" /><path
         d="m 16,10.312 c -3.138,0 -5.688,2.551 -5.688,5.688 0,3.137 2.551,5.688 5.688,5.688 3.137,0 5.688,-2.551 5.688,-5.688 0,-3.137 -2.55,-5.688 -5.688,-5.688 z m 0,9.163 A 3.475,3.475 0 1 1 15.999,12.525 3.475,3.475 0 0 1 16,19.475 Z M 21.7,8.991 a 1.363,1.363 0 1 1 -1.364,1.364 c 0,-0.752 0.51,-1.364 1.364,-1.364 z"
         id="path2" /></g></g><metadata
     id="metadata4"><rdf:RDF><cc:Work
         rdf:about=""><dc:title>github [#142]</dc:title></cc:Work></rdf:RDF></metadata></svg>
