<?xml version="1.0" encoding="UTF-8" standalone="no"?>
<!-- Created with Inkscape (http://www.inkscape.org/) -->

<svg
   width="16.988976"
   height="16.659424"
   viewBox="0 0 4.4949998 4.4078059"
   version="1.1"
   id="svg1"
   xml:space="preserve"
   xmlns="http://www.w3.org/2000/svg"
   xmlns:svg="http://www.w3.org/2000/svg"
   xmlns:rdf="http://www.w3.org/1999/02/22-rdf-syntax-ns#"
   xmlns:cc="http://creativecommons.org/ns#"
   xmlns:dc="http://purl.org/dc/elements/1.1/"><title
     id="title4">github [#142]</title><defs
     id="defs1" /><g
     id="layer1"
     transform="translate(-27.356438,-248.76787)"><path
       d="m 31.491733,248.76855 h -3.750432 c -0.04834,-0.003 -0.09665,0.004 -0.142173,0.0209 -0.04552,0.016 -0.08735,0.0409 -0.1231,0.0729 -0.03576,0.0321 -0.06471,0.0705 -0.08523,0.11353 -0.02053,0.0429 -0.0322,0.0895 -0.03436,0.1369 v 3.68554 c 0.0027,0.0992 0.04428,0.19357 0.115864,0.26374 0.07158,0.0702 0.167832,0.11083 0.269012,0.11362 h 3.75043 c 0.09835,-0.004 0.191089,-0.0463 0.258316,-0.11677 0.06722,-0.0704 0.103578,-0.16408 0.101275,-0.26059 v -3.68554 c 8.4e-4,-0.0462 -0.0079,-0.0919 -0.02589,-0.13462 -0.0179,-0.0425 -0.0445,-0.0814 -0.07818,-0.11357 -0.03365,-0.0323 -0.0737,-0.0573 -0.117627,-0.074 -0.04393,-0.0165 -0.09085,-0.0241 -0.137881,-0.0222 z m -2.730651,3.67452 h -0.654569 v -1.96396 h 0.654569 z m -0.311833,-2.26147 c -0.04567,0.002 -0.09119,-0.006 -0.133679,-0.0227 -0.04248,-0.0164 -0.08104,-0.0415 -0.113223,-0.0734 -0.03218,-0.0319 -0.05732,-0.0697 -0.07381,-0.11159 -0.01649,-0.0418 -0.02399,-0.0865 -0.02202,-0.13126 -0.0022,-0.0453 0.0056,-0.0904 0.02247,-0.13262 0.01683,-0.0423 0.04246,-0.0805 0.07528,-0.11235 0.0328,-0.032 0.07203,-0.0566 0.115198,-0.0728 0.04316,-0.0161 0.08929,-0.0233 0.135427,-0.0208 0.04567,-0.002 0.09119,0.006 0.133681,0.0226 0.04249,0.0164 0.08104,0.0415 0.113222,0.0734 0.03218,0.032 0.05731,0.0698 0.07381,0.11161 0.01649,0.0418 0.024,0.0866 0.02203,0.13125 0.0022,0.0452 -0.0056,0.0904 -0.02247,0.1326 -0.01683,0.0423 -0.04247,0.0805 -0.07528,0.11237 -0.0328,0.032 -0.07203,0.0566 -0.115199,0.0728 -0.04316,0.0161 -0.08929,0.0232 -0.135427,0.0209 z m 2.654798,2.26147 h -0.657378 v -1.07426 c 0,-0.25617 -0.09271,-0.43246 -0.325879,-0.43246 -0.07243,6e-4 -0.142912,0.0232 -0.201738,0.0646 -0.05886,0.0415 -0.103187,0.0996 -0.126953,0.16678 -0.01824,0.0503 -0.02589,0.1037 -0.02248,0.15702 v 1.11833 h -0.64614 v -1.96396 h 0.646141 v 0.27545 c 0.05745,-0.10349 0.142938,-0.18937 0.24705,-0.24823 0.104115,-0.0589 0.222779,-0.0882 0.342904,-0.085 0.424207,0 0.744468,0.27545 0.744468,0.86216 z"
       fill="#000000"
       id="path1-8"
       style="stroke-width:0.278178" /></g><metadata
     id="metadata4"><rdf:RDF><cc:Work
         rdf:about=""><dc:title>github [#142]</dc:title></cc:Work></rdf:RDF></metadata></svg>
