<?xml version="1.0" encoding="UTF-8" standalone="no"?>
<!-- Created with Inkscape (http://www.inkscape.org/) -->

<svg
   width="16.989037"
   height="16.88501"
   viewBox="0 0 4.4950159 4.4674921"
   version="1.1"
   id="svg1"
   xml:space="preserve"
   xmlns="http://www.w3.org/2000/svg"
   xmlns:svg="http://www.w3.org/2000/svg"
   xmlns:rdf="http://www.w3.org/1999/02/22-rdf-syntax-ns#"
   xmlns:cc="http://creativecommons.org/ns#"
   xmlns:dc="http://purl.org/dc/elements/1.1/"><title
     id="title4">github [#142]</title><defs
     id="defs1" /><g
     id="layer1"
     transform="translate(-12.804935,-248.73804)"><path
       d="m 17.299897,250.95795 c -0.0052,-0.4283 -0.132804,-0.84619 -0.367618,-1.20443 -0.234815,-0.35824 -0.56709,-0.64193 -0.957718,-0.81766 -0.390655,-0.17572 -0.823367,-0.23616 -1.247203,-0.17419 -0.423827,0.062 -0.821129,0.24375 -1.145108,0.52395 -0.323981,0.28019 -0.561147,0.64713 -0.68357,1.05761 -0.122418,0.41047 -0.124998,0.84737 -0.0074,1.25926 0.11757,0.4119 0.350389,0.7816 0.671042,1.06561 0.320648,0.28401 0.71578,0.47047 1.138851,0.53742 v -1.59296 h -0.56189 v -0.65461 h 0.561889 v -0.49727 c -0.01301,-0.11562 -4.8e-4,-0.2327 0.03672,-0.34296 0.0372,-0.11025 0.09813,-0.21099 0.178513,-0.29512 0.08038,-0.0841 0.178232,-0.1496 0.286677,-0.19177 0.108446,-0.0422 0.224842,-0.06 0.340929,-0.0523 0.168511,0.002 0.336629,0.0173 0.502893,0.0449 v 0.5619 h -0.280946 c -0.04844,-0.006 -0.09766,-0.002 -0.143956,0.0142 -0.04633,0.0155 -0.08858,0.0411 -0.123646,0.0751 -0.03506,0.0339 -0.06203,0.0754 -0.07892,0.12122 -0.01691,0.0459 -0.02329,0.0948 -0.01872,0.14345 v 0.42423 h 0.6237 l -0.101141,0.6546 h -0.51975 v 1.5733 c 0.53096,-0.084 1.014243,-0.35548 1.362166,-0.76527 0.347925,-0.40979 0.537451,-0.93069 0.53422,-1.46825 z"
       fill="#000000"
       id="path1-9"
       style="stroke-width:0.280946" /></g><metadata
     id="metadata4"><rdf:RDF><cc:Work
         rdf:about=""><dc:title>github [#142]</dc:title></cc:Work></rdf:RDF></metadata></svg>
